<svg width="228" height="81" viewBox="0 0 228 81" fill="none" xmlns="http://www.w3.org/2000/svg">
<g clip-path="url(#clip0)">
<path d="M0 27C0 20.6093 5.19046 15.4286 11.5932 15.4286V38.5714C5.19046 38.5714 0 33.3907 0 27Z" fill="#1B2C29"/>
<path d="M54.1017 27C54.1017 20.6093 59.2922 15.4286 65.6949 15.4286V38.5714C59.2922 38.5714 54.1017 33.3907 54.1017 27Z" fill="#1B2C29"/>
<path d="M88.8814 27C88.8814 20.6093 83.6909 15.4286 77.2881 15.4286V38.5714C83.6909 38.5714 88.8814 33.3907 88.8814 27Z" fill="#1B2C29"/>
<path d="M54.1017 69.4286C54.1017 63.0379 59.2922 57.8571 65.6949 57.8571V81C59.2922 81 54.1017 75.8193 54.1017 69.4286Z" fill="#1B2C29"/>
<path d="M88.8814 69.4286C88.8814 63.0379 83.6909 57.8571 77.2881 57.8571V81C83.6909 81 88.8814 75.8193 88.8814 69.4286Z" fill="#1B2C29"/>
<path d="M34.7797 69.4286C34.7797 63.0379 29.5892 57.8571 23.1865 57.8571V81H34.7797V69.4286Z" fill="#1B2C29"/>
<path d="M162.305 27C162.305 20.6093 167.496 15.4286 173.898 15.4286V38.5714C167.496 38.5714 162.305 33.3907 162.305 27Z" fill="#1B2C29"/>
<path d="M216.407 15.4286C222.81 15.4286 228 20.6093 228 27V38.5714C221.597 38.5714 216.407 33.3907 216.407 27V15.4286Z" fill="#1B2C29"/>
<path d="M108.203 50.1429C114.606 50.1429 119.797 55.3236 119.797 61.7143V81C113.394 81 108.203 75.8193 108.203 69.4286V50.1429Z" fill="#1B2C29"/>
<path d="M197.085 27C197.085 20.6093 191.894 15.4286 185.492 15.4286V27H197.085Z" fill="#1B2C29"/>
<path d="M162.305 69.4286C162.305 63.0379 167.496 57.8571 173.898 57.8571V81C167.496 81 162.305 75.8193 162.305 69.4286Z" fill="#1B2C29"/>
<path d="M197.085 69.4286C197.085 63.0379 191.894 57.8571 185.492 57.8571V69.4286H197.085Z" fill="#1B2C29"/>
<path d="M142.983 57.8571H131.39V69.4286C137.793 69.4286 142.983 64.2478 142.983 57.8571Z" fill="#1B2C29"/>
<path d="M28.9831 23.1429C32.1845 23.1429 34.7797 20.5525 34.7797 17.3572C34.7797 14.1618 32.1845 11.5714 28.9831 11.5714C25.7817 11.5714 23.1865 14.1618 23.1865 17.3572C23.1865 20.5525 25.7817 23.1429 28.9831 23.1429Z" fill="#1B2C29"/>
<path d="M108.203 19.2857C108.203 12.895 113.394 7.71429 119.797 7.71429V38.5714C113.394 38.5714 108.203 33.3907 108.203 27V19.2857Z" fill="#1B2C29"/>
<path d="M137.186 19.2857C140.388 19.2857 142.983 16.6954 142.983 13.5C142.983 10.3046 140.388 7.71429 137.186 7.71429C133.985 7.71429 131.39 10.3046 131.39 13.5C131.39 16.6954 133.985 19.2857 137.186 19.2857Z" fill="#1B2C29"/>
<path d="M222.203 11.5714C225.405 11.5714 228 8.98108 228 5.78571C228 2.59035 225.405 0 222.203 0C219.002 0 216.407 2.59035 216.407 5.78571C216.407 8.98108 219.002 11.5714 222.203 11.5714Z" fill="#1B2C29"/>
<path d="M131.39 27H142.983C142.983 33.3907 137.793 38.5714 131.39 38.5714V27Z" fill="#1B2C29"/>
<path d="M23.1865 27H34.7797C34.7797 33.3907 29.5892 38.5714 23.1865 38.5714V27Z" fill="#1B2C29"/>
<path d="M5.79661 65.5714C8.99799 65.5714 11.5932 62.9811 11.5932 59.7857C11.5932 56.5904 8.99799 54 5.79661 54C2.59523 54 0 56.5904 0 59.7857C0 62.9811 2.59523 65.5714 5.79661 65.5714Z" fill="#1B2C29"/>
<path d="M0 69.4286C6.40276 69.4286 11.5932 74.6093 11.5932 81H0V69.4286Z" fill="#1B2C29"/>
</g>
<defs>
<clipPath id="clip0">
<rect width="228" height="81" fill="white"/>
</clipPath>
</defs>
</svg>
