<svg width="24" height="24" viewBox="0 0 24 24" fill="none" xmlns="http://www.w3.org/2000/svg">
<path d="M24 0H0V24H24V0Z" fill="#0D7F91"/>
<path d="M9.21598 18.096C14.874 18.096 17.97 13.404 17.97 9.34199C17.97 9.20999 17.97 9.07799 17.964 8.94599C18.564 8.51399 19.086 7.96799 19.5 7.34999C18.948 7.59599 18.354 7.75799 17.73 7.83599C18.366 7.45799 18.852 6.85199 19.086 6.13199C18.492 6.48599 17.832 6.73799 17.13 6.87599C16.566 6.27599 15.768 5.90399 14.886 5.90399C13.188 5.90399 11.808 7.28399 11.808 8.98199C11.808 9.22199 11.838 9.45599 11.886 9.68399C9.32998 9.55799 7.06198 8.32799 5.54398 6.46799C5.27998 6.92399 5.12998 7.45199 5.12998 8.01599C5.12998 9.08399 5.67598 10.026 6.49798 10.578C5.99398 10.56 5.51998 10.422 5.10598 10.194C5.10598 10.206 5.10598 10.218 5.10598 10.236C5.10598 11.724 6.16798 12.972 7.57198 13.254C7.31398 13.326 7.04398 13.362 6.76198 13.362C6.56398 13.362 6.37198 13.344 6.18598 13.308C6.57598 14.532 7.71598 15.42 9.05998 15.444C8.00398 16.272 6.67798 16.764 5.23798 16.764C4.99198 16.764 4.74598 16.752 4.50598 16.722C5.86198 17.586 7.48198 18.096 9.21598 18.096Z" fill="white"/>
</svg>
