<svg width="24" height="24" viewBox="0 0 24 24" fill="none" xmlns="http://www.w3.org/2000/svg">
<path d="M24 0H0V24H24V0Z" fill="#0D7F91"/>
<path d="M8.06401 16.668H15.948V7.34401H10.248C10.212 7.34401 10.14 7.38001 10.104 7.41601C9.43201 8.13601 8.77201 8.86801 8.11201 9.58801C8.07601 9.62401 8.05201 9.69601 8.05201 9.76801L8.06401 16.668ZM16.728 5.76001C17.16 5.76001 17.52 6.12001 17.52 6.55201V17.46C17.52 17.892 17.172 18.252 16.728 18.252H7.27201C6.84001 18.252 6.48001 17.892 6.48001 17.46C6.48001 17.376 6.48001 9.78001 6.48001 9.48001C6.48001 9.16801 6.57601 8.91601 6.79201 8.68801L9.16801 6.09601C9.37201 5.86801 9.61201 5.77201 9.91201 5.77201H16.728V5.76001ZM9.63601 11.256C9.28801 11.256 9.00001 10.968 9.00001 10.62C9.00001 10.272 9.28801 9.98401 9.63601 9.98401H10.704V8.90401C10.704 8.55601 10.992 8.26801 11.34 8.26801C11.688 8.26801 11.976 8.55601 11.976 8.90401V10.608C11.976 10.956 11.688 11.244 11.34 11.244H9.63601V11.256Z" fill="white"/>
</svg>
